<?xml version="1.0" encoding="UTF-8"?>
  <svg xmlns="http://www.w3.org/2000/svg" width="1280" height="640" viewBox="0 0 1280 640">
    <defs>
      <linearGradient id="bg" x1="0" y1="0" x2="1" y2="1">
        <stop offset="0" stop-color="#070b16"/>
        <stop offset="0.55" stop-color="#0b1220"/>
        <stop offset="1" stop-color="#111827"/>
      </linearGradient>
      <linearGradient id="accent" x1="0" y1="0" x2="1" y2="1">
        <stop offset="0" stop-color="#a855f7"/>
        <stop offset="1" stop-color="#f43f5e"/>
      </linearGradient>
      <radialGradient id="glowA"><stop offset="0" stop-color="#a855f7" stop-opacity="0.34"/><stop offset="1" stop-color="#a855f7" stop-opacity="0"/></radialGradient>
      <radialGradient id="glowB"><stop offset="0" stop-color="#f43f5e" stop-opacity="0.24"/><stop offset="1" stop-color="#f43f5e" stop-opacity="0"/></radialGradient>
      <pattern id="grid" width="34" height="34" patternUnits="userSpaceOnUse"><path d="M 34 0 L 0 0 0 34" fill="none" stroke="#ffffff" stroke-opacity="0.045" stroke-width="1"/></pattern>
      <filter id="shadow" x="-20%" y="-20%" width="140%" height="140%"><feDropShadow dx="0" dy="12" stdDeviation="18" flood-color="#000000" flood-opacity="0.42"/></filter>
    </defs>
    <rect width="1280" height="640" fill="url(#bg)"/>
    <rect width="1280" height="640" fill="url(#grid)"/>
    <circle cx="1050" cy="160" r="380" fill="url(#glowA)"/>
    <circle cx="1160" cy="560" r="330" fill="url(#glowB)"/>
    <path d="M 0 570 C 310 520 520 635 810 568 S 1080 490 1280 540 L 1280 640 L 0 640 Z" fill="url(#accent)" opacity="0.08"/>

    <g filter="url(#shadow)">
      <rect x="72" y="58" width="284" height="38" rx="19" fill="url(#accent)" opacity="0.95"/>
      <text x="214" y="83" text-anchor="middle" fill="#ffffff" font-family="Segoe UI, Arial, sans-serif" font-size="15" font-weight="800" letter-spacing="1.7">NILHAN.DEV  •  AI ENGINEERING</text>
    </g>

    <text x="72" y="260" fill="#f8fafc" font-family="Segoe UI, Arial, sans-serif" font-size="64" font-weight="800" letter-spacing="-2"><tspan x="72" dy="0">GAPS QA</tspan></text>
    <text x="72" y="332" fill="#cbd5e1" font-family="Segoe UI, Arial, sans-serif" font-size="27" font-weight="500">Evidence-first browser and MCP auditing</text>
    <text x="72" y="386" fill="#94a3b8" font-family="Segoe UI, Arial, sans-serif" font-size="21">7 tests  •  Playwright/CDP  •  Markdown + JSON + DOCX</text>
    <g transform="translate(72 472)"><rect width="65.5" height="38" rx="19" fill="#ffffff" opacity="0.08" stroke="#ffffff" stroke-opacity="0.16"/><text x="32.75" y="25" text-anchor="middle" fill="#dbeafe" font-size="14" font-weight="700" letter-spacing="1.2">MCP</text></g><g transform="translate(149.5 472)"><rect width="139" height="38" rx="19" fill="#ffffff" opacity="0.08" stroke="#ffffff" stroke-opacity="0.16"/><text x="69.5" y="25" text-anchor="middle" fill="#dbeafe" font-size="14" font-weight="700" letter-spacing="1.2">BROWSER QA</text></g><g transform="translate(300.5 472)"><rect width="118" height="38" rx="19" fill="#ffffff" opacity="0.08" stroke="#ffffff" stroke-opacity="0.16"/><text x="59" y="25" text-anchor="middle" fill="#dbeafe" font-size="14" font-weight="700" letter-spacing="1.2">EVIDENCE</text></g>

    <g opacity="0.92">
      <path d="M 965 168 L 1090 254" stroke="url(#accent)" stroke-width="4" stroke-linecap="round" opacity="0.55"/><path d="M 965 168 L 935 356" stroke="url(#accent)" stroke-width="4" stroke-linecap="round" opacity="0.55"/><path d="M 1090 254 L 935 356" stroke="url(#accent)" stroke-width="4" stroke-linecap="round" opacity="0.55"/><path d="M 1090 254 L 1132 444" stroke="url(#accent)" stroke-width="4" stroke-linecap="round" opacity="0.55"/><path d="M 935 356 L 1017 492" stroke="url(#accent)" stroke-width="4" stroke-linecap="round" opacity="0.55"/><path d="M 1132 444 L 1017 492" stroke="url(#accent)" stroke-width="4" stroke-linecap="round" opacity="0.55"/>

        <circle cx="965" cy="168" r="45" fill="#a855f7" opacity="0.10"/>
        <circle cx="965" cy="168" r="34" fill="#0b1220" stroke="#a855f7" stroke-width="4"/>
        <circle cx="965" cy="168" r="8.5" fill="#a855f7"/>

        <circle cx="1090" cy="254" r="54" fill="#f43f5e" opacity="0.10"/>
        <circle cx="1090" cy="254" r="43" fill="#0b1220" stroke="#f43f5e" stroke-width="4"/>
        <circle cx="1090" cy="254" r="10.75" fill="#f43f5e"/>

        <circle cx="935" cy="356" r="50" fill="#a855f7" opacity="0.10"/>
        <circle cx="935" cy="356" r="39" fill="#0b1220" stroke="#a855f7" stroke-width="4"/>
        <circle cx="935" cy="356" r="9.75" fill="#a855f7"/>

        <circle cx="1132" cy="444" r="42" fill="#f43f5e" opacity="0.10"/>
        <circle cx="1132" cy="444" r="31" fill="#0b1220" stroke="#f43f5e" stroke-width="4"/>
        <circle cx="1132" cy="444" r="7.75" fill="#f43f5e"/>

        <circle cx="1017" cy="492" r="35" fill="#a855f7" opacity="0.10"/>
        <circle cx="1017" cy="492" r="24" fill="#0b1220" stroke="#a855f7" stroke-width="4"/>
        <circle cx="1017" cy="492" r="6" fill="#a855f7"/>

    </g>

    <rect x="72" y="562" width="8" height="8" rx="4" fill="#f43f5e"/>
    <text x="94" y="573" fill="#94a3b8" font-family="Consolas, Segoe UI, monospace" font-size="17">github.com/NilhanHub/gaps-qa</text>
    <text x="1208" y="573" text-anchor="end" fill="#64748b" font-family="Segoe UI, Arial, sans-serif" font-size="15" letter-spacing="1">AUDITABLE • TESTED • HONEST</text>
    <rect x="0" y="0" width="1280" height="6" fill="url(#accent)"/>
  </svg>